# xmcd
#
# Track frame offsets:
#  150
#  11825
#  22662
#  32062
#  48962
#  59037
#  70075
#  82962
#  96000
#  110450
#  124400
#  143025
#  156112
#  173462
#  183212
#  196875
#  212137
#  223050
#  238975
#  255912
#
# Disc length: 3618 seconds
#
# Revision: 0
# Processed by: cddbd v1.5.1PL2 Copyright (c) Steve Scherf et al.
# Submitted via: Collectorz.com Music Collector 6.9
#
DISCID=0f0e2014
DTITLE=Val Doonican - Take Me Home Country Roads
DYEAR=1900
DGENRE=
TTITLE0=Country Roads
TTITLE1=Walk Right Back
TTITLE2=Snowbird
TTITLE3=Killing Me Softly With Her Song
TTITLE4=Little Arrows
TTITLE5=Walkin' In The Sunshine
TTITLE6=Things
TTITLE7=Rose Garden
TTITLE8=Behind Closed Doors
TTITLE9=Crying Time
TTITLE10=Mississippi
TTITLE11=All I Ever Need Is You
TTITLE12=Loves Been Good To Me
TTITLE13=Annie's Song
TTITLE14=Can't Help Falling In Love
TTITLE15=El Paso
TTITLE16=Everybody's Talking
TTITLE17=Until It's Time For You To Go
TTITLE18=Leaving On A Jet Plane
TTITLE19=Little Green Apples
EXTD=
EXTT0=
EXTT1=
EXTT2=
EXTT3=
EXTT4=
EXTT5=
EXTT6=
EXTT7=
EXTT8=
EXTT9=
EXTT10=
EXTT11=
EXTT12=
EXTT13=
EXTT14=
EXTT15=
EXTT16=
EXTT17=
EXTT18=
EXTT19=
PLAYORDER=
